# xmcd
#
# Track frame offsets:
#	150
#	13735
#	24657
#	34704
#	43510
#	52981
#	63009
#	74797
#	86833
#	97385
#	108110
#	117047
#	127819
#	139363
#	148352
#	158172
#	169792
#	181388
#	193896
#	203774
#	216507
#	227546
#
# Disc length: 3166 seconds
#
# Revision: 0
# Processed by: cddbd v1.5.2PL0 Copyright (c) Steve Scherf et al.
# Submitted via: EZCDAudioConverter 3.1.0.1
#
DISCID=460c5c16
DTITLE=Skeeter Davis - I Forgot More Than You'll Ever Know and Let Me Get Close 
DTITLE=To You
DYEAR=1964
DGENRE=Country
TTITLE0=The Davis Sisters - I Forgot More Than You'll Ever Know
TTITLE1=Skeeter Davis - He Left His Heart With Me
TTITLE2=Skeeter Davis - I'm Going Steady With A Heartache
TTITLE3=Skeeter Davis - I Ain't A-Talkin'
TTITLE4=Skeeter Davis - I Need You All The Time
TTITLE5=Skeeter Davis - The Hand You're Holding Now
TTITLE6=Skeeter Davis - Someone I'd Like To Forget
TTITLE7=Skeeter Davis - Wishful Thinking
TTITLE8=Skeeter Davis - Someday  Someday
TTITLE9=Skeeter Davis - Wave Bye Bye
TTITLE10=Skeeter Davis - Now I Lay Me Down To Weep
TTITLE11=Skeeter Davis - Gonna Get Along Without You Know
TTITLE12=Skeeter Davis - Didn't I?
TTITLE13=Skeeter Davis - My Sweet Loving Man
TTITLE14=Skeeter Davis - I Can't Stay Mad At You
TTITLE15=Skeeter Davis - My Happiness
TTITLE16=Skeeter Davis - Let Me Get Close To You
TTITLE17=Skeeter Davis - Another You
TTITLE18=Skeeter Davis - Ladder Of Success
TTITLE19=Skeeter Davis - He Says The Same Things To Me
TTITLE20=Skeeter Davis - Ask Me
TTITLE21=Skeeter Davis - Easy To Love (So Hard To Get)
EXTD=
EXTT0=
EXTT1=
EXTT2=
EXTT3=
EXTT4=
EXTT5=
EXTT6=
EXTT7=
EXTT8=
EXTT9=
EXTT10=
EXTT11=
EXTT12=
EXTT13=
EXTT14=
EXTT15=
EXTT16=
EXTT17=
EXTT18=
EXTT19=
EXTT20=
EXTT21=
PLAYORDER=
